<svg width="416" height="297" viewBox="0 0 416 297" fill="none" xmlns="http://www.w3.org/2000/svg">
    <path d="M0.5 4C0.5 2.06701 2.067 0.5 4 0.5H412C413.933 0.5 415.5 2.067 415.5 4V293C415.5 294.933 413.933 296.5 412 296.5H3.99999C2.067 296.5 0.5 294.933 0.5 293V4Z" fill="white" stroke="#EBEBEB"/>
    <path d="M165.239 113V103.13H171.805V104.558H166.961V107.274H171.497V108.702H166.961V111.572H171.805V113H165.239ZM173.621 113V103.13H175.119L178.619 109.584L182.105 103.13H183.575V113H181.951V106.35L179.123 111.502H178.073L175.245 106.378V113H173.621ZM185.747 113V103.13H190.031C191.114 103.13 191.949 103.401 192.537 103.942C193.125 104.483 193.419 105.239 193.419 106.21C193.419 107.181 193.125 107.941 192.537 108.492C191.949 109.033 191.114 109.304 190.031 109.304H187.539V113H185.747ZM187.539 107.89H189.751C191.039 107.89 191.683 107.33 191.683 106.21C191.683 105.099 191.039 104.544 189.751 104.544H187.539V107.89ZM197.014 113V104.628H193.626V103.13H202.194V104.628H198.806V113H197.014ZM205.859 113V108.464L202.065 103.13H204.151L206.783 106.868L209.429 103.13H211.431L207.651 108.478V113H205.859ZM215.934 113V103.13H220.218C221.301 103.13 222.136 103.401 222.724 103.942C223.312 104.483 223.606 105.239 223.606 106.21C223.606 107.181 223.312 107.941 222.724 108.492C222.136 109.033 221.301 109.304 220.218 109.304H217.726V113H215.934ZM217.726 107.89H219.938C221.226 107.89 221.87 107.33 221.87 106.21C221.87 105.099 221.226 104.544 219.938 104.544H217.726V107.89ZM222.978 113L227.444 103.13H228.914L233.38 113H231.56L230.58 110.718H225.764L224.798 113H222.978ZM228.158 105.076L226.38 109.29H229.964L228.186 105.076H228.158ZM239.001 113.14C237.909 113.14 236.985 112.935 236.229 112.524C235.482 112.113 234.913 111.53 234.521 110.774C234.129 110.018 233.933 109.122 233.933 108.086C233.933 107.041 234.133 106.14 234.535 105.384C234.936 104.619 235.515 104.031 236.271 103.62C237.027 103.2 237.932 102.99 238.987 102.99C239.677 102.99 240.326 103.093 240.933 103.298C241.539 103.494 242.043 103.769 242.445 104.124L241.843 105.524C241.404 105.179 240.956 104.931 240.499 104.782C240.041 104.633 239.537 104.558 238.987 104.558C237.941 104.558 237.148 104.861 236.607 105.468C236.075 106.075 235.809 106.947 235.809 108.086C235.809 109.234 236.084 110.107 236.635 110.704C237.185 111.301 238.002 111.6 239.085 111.6C239.393 111.6 239.705 111.577 240.023 111.53C240.349 111.474 240.671 111.395 240.989 111.292V108.996H238.721V107.666H242.487V112.412C242.029 112.636 241.488 112.813 240.863 112.944C240.237 113.075 239.617 113.14 239.001 113.14ZM244.563 113V103.13H251.129V104.558H246.285V107.274H250.821V108.702H246.285V111.572H251.129V113H244.563Z" fill="#DDDDDD"/>
</svg>
