<svg width="149" height="27" viewBox="0 0 149 27" fill="none" xmlns="http://www.w3.org/2000/svg">
<path d="M0.304 26V0.619998H18.016V5.732H6.928V10.844H17.224V15.92H6.928V26H0.304ZM21.1517 26V0.619998H27.7757V26H21.1517ZM38.3425 26V6.02H30.2785V0.619998H53.0305V6.02H44.9665V26H38.3425ZM55.5345 26V0.619998H60.3945L72.0585 15.164V0.619998H78.1785V26H73.3545L61.6905 11.456V26H55.5345ZM82.8157 26V0.619998H100.744V5.732H89.1517V10.556H99.9157V15.668H89.1517V20.888H100.744V26H82.8157ZM114.009 26.396C112.017 26.396 110.109 26.156 108.285 25.676C106.461 25.172 104.961 24.512 103.785 23.696L105.621 18.548C106.725 19.292 108.021 19.88 109.509 20.312C110.997 20.744 112.497 20.96 114.009 20.96C115.593 20.96 116.697 20.756 117.321 20.348C117.969 19.916 118.293 19.388 118.293 18.764C118.293 18.212 118.065 17.768 117.609 17.432C117.177 17.096 116.397 16.808 115.269 16.568L111.057 15.668C106.497 14.684 104.217 12.296 104.217 8.504C104.217 6.848 104.661 5.396 105.549 4.148C106.461 2.9 107.721 1.94 109.329 1.268C110.937 0.571999 112.809 0.223999 114.945 0.223999C116.697 0.223999 118.353 0.475999 119.913 0.979998C121.497 1.46 122.781 2.12 123.765 2.96L121.929 7.784C121.017 7.112 119.961 6.596 118.761 6.236C117.561 5.852 116.265 5.66 114.873 5.66C113.529 5.66 112.497 5.9 111.777 6.38C111.057 6.836 110.697 7.436 110.697 8.18C110.697 8.708 110.913 9.14 111.345 9.476C111.777 9.812 112.545 10.1 113.649 10.34L117.825 11.24C122.457 12.224 124.773 14.552 124.773 18.224C124.773 19.88 124.329 21.32 123.441 22.544C122.553 23.768 121.305 24.716 119.697 25.388C118.089 26.06 116.193 26.396 114.009 26.396ZM137.459 26.396C135.467 26.396 133.559 26.156 131.735 25.676C129.911 25.172 128.411 24.512 127.235 23.696L129.071 18.548C130.175 19.292 131.471 19.88 132.959 20.312C134.447 20.744 135.947 20.96 137.459 20.96C139.043 20.96 140.147 20.756 140.771 20.348C141.419 19.916 141.743 19.388 141.743 18.764C141.743 18.212 141.515 17.768 141.059 17.432C140.627 17.096 139.847 16.808 138.719 16.568L134.507 15.668C129.947 14.684 127.667 12.296 127.667 8.504C127.667 6.848 128.111 5.396 128.999 4.148C129.911 2.9 131.171 1.94 132.779 1.268C134.387 0.571999 136.259 0.223999 138.395 0.223999C140.147 0.223999 141.803 0.475999 143.363 0.979998C144.947 1.46 146.231 2.12 147.215 2.96L145.379 7.784C144.467 7.112 143.411 6.596 142.211 6.236C141.011 5.852 139.715 5.66 138.323 5.66C136.979 5.66 135.947 5.9 135.227 6.38C134.507 6.836 134.147 7.436 134.147 8.18C134.147 8.708 134.363 9.14 134.795 9.476C135.227 9.812 135.995 10.1 137.099 10.34L141.275 11.24C145.907 12.224 148.223 14.552 148.223 18.224C148.223 19.88 147.779 21.32 146.891 22.544C146.003 23.768 144.755 24.716 143.147 25.388C141.539 26.06 139.643 26.396 137.459 26.396Z" fill="white"/>
</svg>
