<?xml version="1.0" encoding="utf-8"?>
<!-- Generator: Adobe Illustrator 24.3.0, SVG Export Plug-In . SVG Version: 6.00 Build 0)  -->
<svg version="1.1" id="Logo" xmlns="http://www.w3.org/2000/svg" xmlns:xlink="http://www.w3.org/1999/xlink"
     viewBox="0 0 175 175" xml:space="preserve">
<style type="text/css">
	.st0{fill:#263870;}
	.st1{fill:url(#SVGID_1_);}
	.st2{fill:url(#SVGID_2_);}
	.st3{fill:url(#SVGID_3_);}
	.st4{fill:url(#SVGID_4_);}
	.st5{fill:url(#SVGID_5_);}
	.st6{fill:url(#SVGID_6_);}
	.st7{fill:url(#SVGID_7_);}
	.st8{fill:url(#SVGID_8_);}
	.st9{fill:url(#SVGID_9_);}
	.st10{fill:url(#SVGID_10_);}
</style>
  <style>
    @media (prefers-color-scheme:dark){
    	.st0{fill:#CECED9;}
      .st1{fill:url(#SVGID_11_);}
      .st2{fill:url(#SVGID_12_);}
      .st3{fill:url(#SVGID_13_);}
      .st4{fill:url(#SVGID_14_);}
      .st5{fill:url(#SVGID_15_);}
      .st6{fill:url(#SVGID_16_);}
      .st7{fill:url(#SVGID_17_);}
      .st8{fill:url(#SVGID_18_);}
      .st9{fill:url(#SVGID_19_);}
      .st10{fill:url(#SVGID_20_);}
    }
  </style>
  <g>
	<g>
		<g>
			<g>
				<path class="st1" d="M139.46,116.12c14.67,0,26.4-9.03,30.15-22.25h-1.9c-3.7,12.23-14.62,20.5-28.25,20.5
					c-16.88,0-29.6-12.72-29.6-29.74c0-17.02,12.72-29.74,29.6-29.74c13.78,0,24.75,8.42,28.35,20.8h1.85
					c-3.6-13.38-15.38-22.56-30.2-22.56c-17.92,0-31.4,13.48-31.4,31.5c0,1.47,0.09,2.9,0.26,4.3c0.96,2.21,1.57,4.65,1.76,7.28
					C114.48,108.12,125.65,116.12,139.46,116.12z"/>
        <path class="st2" d="M139.46,50.4c16.55,0,29.53,10.33,33.23,25.28h1.85c-3.74-15.94-17.49-27.04-35.08-27.04
					c-14.96,0-27.15,8.05-32.76,20.29c0.04,0.58,0.07,1.18,0.07,1.78c0,4.35-1.16,8.28-3.21,11.54c0.58,0.53,1.12,1.09,1.63,1.68
					C105.52,64.68,120.04,50.4,139.46,50.4z"/>
        <path class="st3" d="M164.77,75.67c-3.55-10.76-13.26-18.08-25.31-18.08c-15.15,0-26.72,11.57-26.72,27.02
					c0,15.45,11.57,27.02,26.72,27.02c11.95,0,21.62-7.17,25.21-17.78h-1.9c-3.5,9.56-12.41,16.02-23.31,16.02
					c-14.1,0-24.91-10.81-24.91-25.27c0-14.45,10.81-25.27,24.91-25.27c11,0,20.02,6.56,23.41,16.32H164.77z"/>
        <path class="st4" d="M139.46,63.83c8.34,0,15.28,4.65,18.43,11.85h1.95c-3.29-8.19-11-13.6-20.38-13.6
					c-12.43,0-22.04,9.61-22.04,22.55c0,12.94,9.61,22.55,22.04,22.55c9.23,0,16.88-5.26,20.23-13.3h-1.95
					c-3.25,7.04-10.09,11.54-18.28,11.54c-11.43,0-20.23-8.8-20.23-20.79C119.23,72.63,128.03,63.83,139.46,63.83z"/>
			</g>
      <path class="st5" d="M139.46,118.89c-13.03,0-23.86-6.46-29.67-16.53c-0.15,0.86-0.35,1.69-0.59,2.5
				c6.31,9.67,17.23,15.79,30.26,15.79c17.44,0,31.13-10.99,34.98-26.78h-1.85C168.74,108.66,155.85,118.89,139.46,118.89z"/>
		</g>
    <g>
			<polygon class="st6" points="62.18,101.59 64.06,106.55 64.06,49.62 62.18,49.62 			"/>
      <polygon class="st7" points="68.95,119.58 68.95,49.62 67,49.62 67,114.4 			"/>
      <rect x="71.64" y="49.62" class="st8" width="1.85" height="69.96"/>
      <path class="st9" d="M110.08,96.2c-0.2-2.63-0.8-5.08-1.76-7.28c-0.8-1.84-1.86-3.52-3.13-5c-0.51-0.59-1.05-1.15-1.63-1.68
				c2.05-3.26,3.21-7.19,3.21-11.54c0-0.6-0.03-1.19-0.07-1.78c-0.84-11.27-9.59-19.31-21.43-19.31h-8.9v69.96h11.74
				c10.52,0,18.44-5.82,21.09-14.72c0.24-0.81,0.43-1.64,0.59-2.5c0.24-1.37,0.37-2.79,0.37-4.27
				C110.16,97.45,110.13,96.82,110.08,96.2z M78.23,64.81h7.04c3.46,0,5.96,2.5,5.96,5.9s-2.5,5.9-5.96,5.9h-7.04V64.81z
				 M78.23,78.36h7.04c4.5,0,7.77-3.26,7.77-7.65c0-4.4-3.27-7.65-7.77-7.65h-7.04v-2.72h7.04c6.07,0,10.54,4.36,10.54,10.37
				c0,6.01-4.47,10.37-10.54,10.37h-7.04V78.36z M78.23,82.84h7.04c7.17,0,12.34-5.12,12.34-12.13s-5.18-12.13-12.34-12.13h-7.04
				v-2.72h7.04c8.74,0,15.12,6.27,15.12,14.85c0,8.58-6.38,14.85-15.12,14.85h-7.04V82.84z M78.23,87.32h7.04
				c9.78,0,16.92-6.99,16.92-16.61c0-9.63-7.14-16.61-16.92-16.61h-7.04v-2.72h7.04c11.35,0,19.69,8.13,19.69,19.33
				s-8.34,19.33-19.69,19.33h-7.04V87.32z M78.23,91.79h7.04h2.84c4,0,6.51,2.5,6.51,6.3c0,3.8-2.5,6.3-6.51,6.3h-9.88V91.79z
				 M78.23,106.15h9.88c5.05,0,8.31-3.26,8.31-8.05c0-3.41-1.66-6.02-4.46-7.23c1.13-0.33,2.21-0.74,3.24-1.23
				c2.51,1.82,3.99,4.81,3.99,8.46c0,6.41-4.47,10.77-11.08,10.77h-9.88V106.15z M78.23,110.62h9.88c7.71,0,12.89-5.12,12.89-12.53
				c0-3.94-1.47-7.25-4.01-9.42c0.79-0.48,1.55-1.01,2.26-1.59c2.85,2.64,4.52,6.48,4.52,11.01c0,8.98-6.38,15.25-15.66,15.25h-9.88
				V110.62z M107.88,102.67c-1.9,9.1-9.51,15.15-19.77,15.15h-9.88v-2.72h9.88c10.33,0,17.47-6.98,17.47-17.01
				c0-0.19-0.01-0.37-0.01-0.56c-0.08-2.79-0.72-5.33-1.83-7.53c-0.8-1.57-1.83-2.97-3.07-4.17c0.66-0.64,1.27-1.33,1.83-2.06
				c0.3,0.28,0.59,0.58,0.88,0.89c0.7,0.75,1.33,1.56,1.89,2.42c1.98,3.06,3.09,6.81,3.09,11.01c0,0.47-0.02,0.93-0.05,1.39
				C108.24,100.58,108.1,101.64,107.88,102.67z"/>
		</g>
    <path class="st10" d="M1.9,119.58H0l26.19-69.96h1.9L1.9,119.58z M6.78,119.58h-1.9l26.18-69.96h1.9L6.78,119.58z M11.65,119.58
			h-1.9l26.18-69.96h1.9L11.65,119.58z M40.29,56.1l23.78,63.48h-1.9L39.35,58.63l-1.46,3.89l21.31,57.06h-1.9L36.92,65.11
			l-1.45,3.88l18.85,50.59h-1.9l-3.38-9.09h-29.1l-3.4,9.09h-1.9l26.19-69.96h1.9l26.24,69.96h-1.9L41.77,52.16L40.29,56.1z
			 M47.37,106.01H21.61l-1.02,2.72h27.79L47.37,106.01z M22.27,104.25h24.45l-1.01-2.72H23.29L22.27,104.25z M44.04,97.05H24.96
			l-1.02,2.72h21.11L44.04,97.05z M25.62,95.29h17.77l-8.86-23.8L25.62,95.29z"/>
	</g>

    <linearGradient id="SVGID_1_" gradientUnits="userSpaceOnUse" x1="115.8173" y1="79.1408" x2="172.2943" y2="92.2197">
					<stop offset="0" style="stop-color:#263870"/>
      <stop offset="0.5003" style="stop-color:#00598E"/>
      <stop offset="1" style="stop-color:#29A9E1"/>
				</linearGradient>
    <linearGradient id="SVGID_2_" gradientUnits="userSpaceOnUse" x1="119.0918" y1="65.001" x2="175.5688" y2="78.0799">
					<stop offset="0" style="stop-color:#263870"/>
      <stop offset="0.5003" style="stop-color:#00598E"/>
      <stop offset="1" style="stop-color:#29A9E1"/>
				</linearGradient>
    <linearGradient id="SVGID_3_" gradientUnits="userSpaceOnUse" x1="115.8169" y1="79.1428" x2="172.2938" y2="92.2217">
					<stop offset="0" style="stop-color:#263870"/>
      <stop offset="0.5003" style="stop-color:#00598E"/>
      <stop offset="1" style="stop-color:#29A9E1"/>
				</linearGradient>
    <linearGradient id="SVGID_4_" gradientUnits="userSpaceOnUse" x1="115.8176" y1="79.1398" x2="172.2945" y2="92.2187">
					<stop offset="0" style="stop-color:#263870"/>
      <stop offset="0.5003" style="stop-color:#00598E"/>
      <stop offset="1" style="stop-color:#29A9E1"/>
				</linearGradient>
    <linearGradient id="SVGID_5_" gradientUnits="userSpaceOnUse" x1="111.6151" y1="97.2869" x2="168.092" y2="110.3658">
				<stop offset="0" style="stop-color:#263870"/>
      <stop offset="0.5003" style="stop-color:#00598E"/>
      <stop offset="1" style="stop-color:#29A9E1"/>
			</linearGradient>
    <linearGradient id="SVGID_6_" gradientUnits="userSpaceOnUse" x1="77.404" y1="78.8242" x2="109.5066" y2="80.6076">
				<stop offset="0" style="stop-color:#263870"/>
      <stop offset="0.5003" style="stop-color:#00598E"/>
      <stop offset="1" style="stop-color:#29A9E1"/>
			</linearGradient>
    <linearGradient id="SVGID_7_" gradientUnits="userSpaceOnUse" x1="77.0581" y1="85.0489" x2="109.1608" y2="86.8324">
				<stop offset="0" style="stop-color:#263870"/>
      <stop offset="0.5003" style="stop-color:#00598E"/>
      <stop offset="1" style="stop-color:#29A9E1"/>
			</linearGradient>
    <linearGradient id="SVGID_8_" gradientUnits="userSpaceOnUse" x1="77.0693" y1="84.8486" x2="109.172" y2="86.6321">
				<stop offset="0" style="stop-color:#263870"/>
      <stop offset="0.5003" style="stop-color:#00598E"/>
      <stop offset="1" style="stop-color:#29A9E1"/>
			</linearGradient>
    <linearGradient id="SVGID_9_" gradientUnits="userSpaceOnUse" x1="77.0958" y1="84.3718" x2="109.1984" y2="86.1552">
				<stop offset="0" style="stop-color:#263870"/>
      <stop offset="0.5003" style="stop-color:#00598E"/>
      <stop offset="1" style="stop-color:#29A9E1"/>
			</linearGradient>
    <linearGradient id="SVGID_10_" gradientUnits="userSpaceOnUse" x1="11.3634" y1="84.5987" x2="72.5963" y2="84.5987">
			<stop offset="0" style="stop-color:#263870"/>
      <stop offset="0.5003" style="stop-color:#00598E"/>
      <stop offset="1" style="stop-color:#29A9E1"/>
		</linearGradient>

    <linearGradient id="SVGID_11_" gradientUnits="userSpaceOnUse" x1="106.1232" y1="85.5902" x2="160.8167" y2="84.0049">
				<stop offset="5.618000e-03" style="stop-color:#00598E"/>
      <stop offset="0.5466" style="stop-color:#1C98D5"/>
      <stop offset="0.5785" style="stop-color:#299DD7"/>
      <stop offset="0.8706" style="stop-color:#9BCBEA"/>
      <stop offset="1" style="stop-color:#C8DDF1"/>
			</linearGradient>
    <linearGradient id="SVGID_12_" gradientUnits="userSpaceOnUse" x1="105.5777" y1="66.7692" x2="160.2711" y2="65.1838">
				<stop offset="5.618000e-03" style="stop-color:#00598E"/>
      <stop offset="0.5466" style="stop-color:#1C98D5"/>
      <stop offset="0.5785" style="stop-color:#299DD7"/>
      <stop offset="0.8706" style="stop-color:#9BCBEA"/>
      <stop offset="1" style="stop-color:#C8DDF1"/>
			</linearGradient>
    <linearGradient id="SVGID_13_" gradientUnits="userSpaceOnUse" x1="106.1232" y1="85.5901" x2="160.8167" y2="84.0048">
				<stop offset="5.618000e-03" style="stop-color:#00598E"/>
      <stop offset="0.5466" style="stop-color:#1C98D5"/>
      <stop offset="0.5785" style="stop-color:#299DD7"/>
      <stop offset="0.8706" style="stop-color:#9BCBEA"/>
      <stop offset="1" style="stop-color:#C8DDF1"/>
			</linearGradient>
    <linearGradient id="SVGID_14_" gradientUnits="userSpaceOnUse" x1="106.1232" y1="85.5901" x2="160.8167" y2="84.0048">
				<stop offset="5.618000e-03" style="stop-color:#00598E"/>
      <stop offset="0.5466" style="stop-color:#1C98D5"/>
      <stop offset="0.5785" style="stop-color:#299DD7"/>
      <stop offset="0.8706" style="stop-color:#9BCBEA"/>
      <stop offset="1" style="stop-color:#C8DDF1"/>
			</linearGradient>
    <linearGradient id="SVGID_15_" gradientUnits="userSpaceOnUse" x1="106.7929" y1="108.6935" x2="161.4863"
                    y2="107.1082">
				<stop offset="5.618000e-03" style="stop-color:#00598E"/>
      <stop offset="0.5466" style="stop-color:#1C98D5"/>
      <stop offset="0.5785" style="stop-color:#299DD7"/>
      <stop offset="0.8706" style="stop-color:#9BCBEA"/>
      <stop offset="1" style="stop-color:#C8DDF1"/>
			</linearGradient>
    <linearGradient id="SVGID_16_" gradientUnits="userSpaceOnUse" x1="60.9466" y1="77.1054" x2="106.9209" y2="91.7696">
				<stop offset="5.618000e-03" style="stop-color:#00598E"/>
      <stop offset="0.5466" style="stop-color:#1C98D5"/>
      <stop offset="0.5785" style="stop-color:#299DD7"/>
      <stop offset="0.8706" style="stop-color:#9BCBEA"/>
      <stop offset="1" style="stop-color:#C8DDF1"/>
			</linearGradient>
    <linearGradient id="SVGID_17_" gradientUnits="userSpaceOnUse" x1="59.5127" y1="81.6009" x2="105.487" y2="96.2651">
				<stop offset="5.618000e-03" style="stop-color:#00598E"/>
      <stop offset="0.5466" style="stop-color:#1C98D5"/>
      <stop offset="0.5785" style="stop-color:#299DD7"/>
      <stop offset="0.8706" style="stop-color:#9BCBEA"/>
      <stop offset="1" style="stop-color:#C8DDF1"/>
			</linearGradient>
    <linearGradient id="SVGID_18_" gradientUnits="userSpaceOnUse" x1="59.8466" y1="80.5543" x2="105.8208" y2="95.2185">
				<stop offset="5.618000e-03" style="stop-color:#00598E"/>
      <stop offset="0.5466" style="stop-color:#1C98D5"/>
      <stop offset="0.5785" style="stop-color:#299DD7"/>
      <stop offset="0.8706" style="stop-color:#9BCBEA"/>
      <stop offset="1" style="stop-color:#C8DDF1"/>
			</linearGradient>
    <linearGradient id="SVGID_19_" gradientUnits="userSpaceOnUse" x1="60.7845" y1="77.6139" x2="106.7587" y2="92.2781">
				<stop offset="5.618000e-03" style="stop-color:#00598E"/>
      <stop offset="0.5466" style="stop-color:#1C98D5"/>
      <stop offset="0.5785" style="stop-color:#299DD7"/>
      <stop offset="0.8706" style="stop-color:#9BCBEA"/>
      <stop offset="1" style="stop-color:#C8DDF1"/>
			</linearGradient>
    <linearGradient id="SVGID_20_" gradientUnits="userSpaceOnUse" x1="-13.4745" y1="86.9546" x2="58.6575" y2="84.1803">
			<stop offset="5.618000e-03" style="stop-color:#00598E"/>
      <stop offset="0.5466" style="stop-color:#1C98D5"/>
      <stop offset="0.5785" style="stop-color:#299DD7"/>
      <stop offset="0.8706" style="stop-color:#9BCBEA"/>
      <stop offset="1" style="stop-color:#C8DDF1"/>
		</linearGradient>

</g>
  <path class="st0" d="M166.21,50.45h-1.52v-0.69h3.83v0.69h-1.52v3.92h-0.79V50.45z M169.18,49.76h0.97l1.49,3.72l1.51-3.72h0.96
	v4.62h-0.7V50.9l-1.44,3.47h-0.66l-1.42-3.46v3.46h-0.7V49.76z"/>
</svg>
